<svg width="32" height="32" viewBox="0 0 32 32" fill="none" xmlns="http://www.w3.org/2000/svg">
<rect width="32" height="32" fill="#252525"/>
<path d="M11.0098 19.7031C11.0098 19.6966 11.0065 19.6901 11 19.6836C11 19.6771 11 19.6706 11 19.6641C11 19.5534 11.0586 19.498 11.1758 19.498C11.2344 19.498 11.2995 19.5273 11.3711 19.5859C11.7227 19.918 12.1133 20.1816 12.543 20.377C12.9727 20.5723 13.4414 20.6699 13.9492 20.6699C14.0859 20.6699 14.2422 20.6569 14.418 20.6309C14.5938 20.5983 14.7598 20.5495 14.916 20.4844C15.0723 20.4128 15.2025 20.3216 15.3066 20.2109C15.4173 20.1003 15.4727 19.9603 15.4727 19.791C15.4727 19.6022 15.4271 19.4329 15.3359 19.2832C15.2448 19.1335 15.1243 19.0065 14.9746 18.9023C14.916 18.8633 14.8281 18.7982 14.7109 18.707C14.5938 18.6159 14.4603 18.5117 14.3105 18.3945C14.1608 18.2773 14.0046 18.1536 13.8418 18.0234C13.679 17.8867 13.5228 17.7598 13.373 17.6426C13.2298 17.5189 13.0996 17.4082 12.9824 17.3105C12.8652 17.2129 12.7773 17.138 12.7188 17.0859C12.3346 16.7995 12.0286 16.5098 11.8008 16.2168C11.5794 15.9238 11.4102 15.6178 11.293 15.2988C11.1758 14.9798 11.1009 14.651 11.0684 14.3125C11.0358 13.9674 11.0195 13.6029 11.0195 13.2188C11.0195 12.6458 11.1562 12.1022 11.4297 11.5879C11.7031 11.0736 12.0872 10.6276 12.582 10.25C13.0833 9.86589 13.6823 9.56315 14.3789 9.3418C15.0755 9.11393 15.8503 9 16.7031 9C16.8073 9 16.9635 9.01302 17.1719 9.03906C17.3802 9.05859 17.6081 9.0944 17.8555 9.14648C18.1094 9.19857 18.3665 9.27018 18.627 9.36133C18.8874 9.45247 19.125 9.56966 19.3398 9.71289C19.4115 9.76497 19.4668 9.81706 19.5059 9.86914C19.5514 9.92122 19.5807 10.0026 19.5938 10.1133C19.6263 10.6406 19.6523 11.1615 19.6719 11.6758C19.6914 12.1836 19.7174 12.724 19.75 13.2969C19.75 13.4076 19.7272 13.4824 19.6816 13.5215C19.6361 13.554 19.5775 13.5703 19.5059 13.5703C19.4342 13.5703 19.3789 13.5508 19.3398 13.5117C19.151 13.3229 18.9557 13.1374 18.7539 12.9551C18.5521 12.7728 18.3405 12.6133 18.1191 12.4766C17.8978 12.3333 17.6602 12.2194 17.4062 12.1348C17.1589 12.0501 16.8887 12.0078 16.5957 12.0078C16.4199 12.0078 16.2441 12.0241 16.0684 12.0566C15.8926 12.0827 15.7331 12.1348 15.5898 12.2129C15.4466 12.291 15.3294 12.3984 15.2383 12.5352C15.1536 12.6719 15.1113 12.8444 15.1113 13.0527C15.1113 13.2741 15.1374 13.4661 15.1895 13.6289C15.248 13.7917 15.388 13.9447 15.6094 14.0879L17.9531 15.6797C18.3828 15.9857 18.7311 16.2917 18.998 16.5977C19.265 16.8971 19.4733 17.1966 19.623 17.4961C19.7728 17.7956 19.8737 18.0918 19.9258 18.3848C19.9844 18.6712 20.0137 18.9544 20.0137 19.2344C20.0137 19.6901 19.9388 20.1198 19.7891 20.5234C19.6393 20.9271 19.4342 21.3014 19.1738 21.6465C18.9134 21.985 18.6074 22.291 18.2559 22.5645C17.9108 22.8314 17.5397 23.0625 17.1426 23.2578C16.7454 23.4466 16.332 23.5898 15.9023 23.6875C15.4792 23.7917 15.0625 23.8438 14.6523 23.8438C14.3333 23.8438 14.0176 23.8372 13.7051 23.8242C13.3991 23.8177 13.0996 23.7917 12.8066 23.7461C12.5137 23.707 12.2305 23.6419 11.957 23.5508C11.6836 23.4661 11.4232 23.3457 11.1758 23.1895L11.0098 19.7031Z" fill="#FFC700"/>
</svg>
